<?xml version="1.0" encoding="UTF-8"?>
<svg id="Layer_2" data-name="Layer 2" xmlns="http://www.w3.org/2000/svg" viewBox="0 0 25.23 23.16">
  <defs>
    <style>
      .cls-1 {
        fill: none;
        stroke-width: 2px;
      }

      .cls-1, .cls-2 {
        stroke: #020202;
      }

      .cls-2 {
        stroke-linecap: round;
        stroke-linejoin: round;
        stroke-width: 1.5px;
      }
    </style>
  </defs>
  <g id="Layer_1-2" data-name="Layer 1">
    <g>
      <path class="cls-1" d="M21.65,22.16H3.58c-.68,0-1.34-.27-1.83-.76-.48-.48-.76-1.14-.76-1.83V7.97c0-.68,.27-1.34,.76-1.83,.48-.48,1.14-.76,1.83-.76H21.65c.68,0,1.34,.27,1.83,.76,.48,.48,.76,1.14,.76,1.83v11.62c0,.68-.27,1.34-.76,1.83-.48,.48-1.14,.76-1.83,.76Z"/>
      <path class="cls-2" d="M18.43,14.42c-.17,0-.34-.07-.46-.19-.12-.12-.19-.29-.19-.46s.07-.34,.19-.46,.29-.19,.46-.19,.34,.07,.46,.19c.12,.12,.19,.29,.19,.46s-.07,.34-.19,.46-.29,.19-.46,.19Z"/>
      <path class="cls-1" d="M20.36,5.38v-1.8c0-.4-.09-.79-.27-1.14-.18-.35-.43-.66-.74-.91-.31-.24-.68-.41-1.07-.48-.39-.08-.79-.06-1.17,.04L2.92,4.87c-.55,.15-1.04,.47-1.38,.92-.35,.45-.53,1-.53,1.57v.6"/>
    </g>
  </g>
</svg>